<svg width="272" height="118" viewBox="0 0 272 118" fill="none" xmlns="http://www.w3.org/2000/svg">
<path d="M0.26651 116.456H42.6025C54.9865 116.456 64.7785 113.432 71.5465 107.528C78.1705 101.768 81.7705 93.56 81.7705 83.624C81.7705 75.416 79.1785 68.216 74.2825 62.744C72.1225 60.296 69.6745 58.28 66.7945 56.696C68.6665 54.968 70.3945 53.096 71.8345 50.792C75.0025 46.04 76.7305 40.28 76.7305 34.088C76.7305 29.192 75.7225 24.584 73.8505 20.696C71.9785 16.808 69.0985 13.64 65.4985 11.048C59.0185 6.43999 49.9465 4.13599 38.7145 4.13599H0.26651V116.456ZM41.4505 95H22.8745V69.224H39.5785C46.0585 69.224 51.2425 70.664 54.4105 73.112C57.1465 75.272 58.5865 78.44 58.5865 82.616C58.5865 86.792 57.1465 89.816 54.5545 91.832C51.5305 93.992 47.0665 95 41.4505 95V95ZM38.8585 48.2H22.8745V25.592L37.4185 25.448C43.3225 25.448 47.9305 26.6 50.5225 28.76C51.3865 29.48 53.8345 31.352 53.8345 36.536C53.8345 40.712 52.5385 43.592 49.8025 45.464C47.2105 47.336 43.4665 48.2 38.8585 48.2V48.2Z" fill="black"/>
<path d="M90.8087 116.456H112.553V33.368L90.8087 40.568V116.456Z" fill="black"/>
<path d="M125.965 116.456H147.709V0.391998L125.965 7.592V116.456Z" fill="black"/>
<path d="M161.121 116.456H182.865V0.391998L161.121 7.592V116.456Z" fill="black"/>
<path d="M250.134 35.384L250.277 39.992C244.517 37.112 238.182 35.528 231.702 35.528C226.23 35.528 220.758 36.536 215.718 38.696C210.822 40.856 206.502 43.736 202.614 47.48C198.87 51.224 195.989 55.688 193.829 60.584C191.813 65.624 190.661 71.096 190.661 76.568C190.661 82.04 191.813 87.512 193.829 92.552C195.989 97.448 198.87 101.768 202.614 105.656C206.502 109.4 210.822 112.28 215.718 114.44C220.758 116.456 226.23 117.608 231.702 117.608C238.182 117.608 244.517 116.024 250.277 113.144L250.134 116.456H271.734V35.384H250.134ZM241.494 93.272C238.614 95 235.158 96.008 231.702 96.008C221.046 96.008 212.261 87.224 212.261 76.568C212.261 65.912 221.046 57.128 231.702 57.128C235.446 57.128 239.19 58.136 242.214 60.296C245.382 62.168 247.83 65.048 249.27 68.36C250.566 70.952 251.141 73.688 251.141 76.568C251.141 80.024 250.278 83.336 248.55 86.36C246.822 89.24 244.518 91.688 241.494 93.272Z" fill="black"/>
</svg>
